<mxfile host="65bd71144e">
    <diagram id="gEqph3Lnf_2kRD9iw-Fo" name="Page-1">
        <mxGraphModel dx="416" dy="644" grid="1" gridSize="10" guides="1" tooltips="1" connect="1" arrows="1" fold="1" page="1" pageScale="1" pageWidth="827" pageHeight="1169" math="0" shadow="0">
            <root>
                <mxCell id="0"/>
                <mxCell id="1" parent="0"/>
                <mxCell id="4" value="Azure" style="rounded=0;whiteSpace=wrap;html=1;align=left;verticalAlign=top;" vertex="1" parent="1">
                    <mxGeometry x="460" y="210" width="310" height="380" as="geometry"/>
                </mxCell>
                <mxCell id="3" value="Sensor Hardware&lt;br&gt;(Developer laptop for testing)" style="rounded=0;whiteSpace=wrap;html=1;align=left;verticalAlign=top;" vertex="1" parent="1">
                    <mxGeometry x="150" y="210" width="180" height="110" as="geometry"/>
                </mxCell>
                <mxCell id="7" value="Sensor&lt;br&gt;data" style="edgeStyle=none;html=1;exitX=1;exitY=0.5;exitDx=0;exitDy=0;entryX=0;entryY=0.5;entryDx=0;entryDy=0;" edge="1" parent="1" source="2" target="6">
                    <mxGeometry relative="1" as="geometry"/>
                </mxCell>
                <mxCell id="2" value="Sensor" style="rounded=0;whiteSpace=wrap;html=1;align=left;verticalAlign=top;" vertex="1" parent="1">
                    <mxGeometry x="170" y="260" width="110" height="30" as="geometry"/>
                </mxCell>
                <mxCell id="6" value="IoT Hub" style="rounded=0;whiteSpace=wrap;html=1;" vertex="1" parent="1">
                    <mxGeometry x="540" y="245" width="120" height="60" as="geometry"/>
                </mxCell>
                <mxCell id="8" value="Azure Kubernetes Service" style="rounded=0;whiteSpace=wrap;html=1;align=left;verticalAlign=bottom;" vertex="1" parent="1">
                    <mxGeometry x="480" y="350" width="270" height="220" as="geometry"/>
                </mxCell>
                <mxCell id="9" value="Dashboard Kubernetes Cluster" style="rounded=0;whiteSpace=wrap;html=1;align=left;verticalAlign=bottom;" vertex="1" parent="1">
                    <mxGeometry x="500" y="370" width="230" height="170" as="geometry"/>
                </mxCell>
                <mxCell id="10" value="Dashboard Kubernetes Service" style="rounded=0;whiteSpace=wrap;html=1;align=left;verticalAlign=bottom;" vertex="1" parent="1">
                    <mxGeometry x="510" y="380" width="200" height="130" as="geometry"/>
                </mxCell>
                <mxCell id="13" value="" style="rounded=0;whiteSpace=wrap;html=1;align=left;verticalAlign=bottom;" vertex="1" parent="1">
                    <mxGeometry x="570" y="420" width="80" height="50" as="geometry"/>
                </mxCell>
                <mxCell id="12" value="" style="rounded=0;whiteSpace=wrap;html=1;align=left;verticalAlign=bottom;" vertex="1" parent="1">
                    <mxGeometry x="560" y="410" width="80" height="50" as="geometry"/>
                </mxCell>
                <mxCell id="11" value="Dashboard Pod" style="rounded=0;whiteSpace=wrap;html=1;align=left;verticalAlign=bottom;" vertex="1" parent="1">
                    <mxGeometry x="550" y="400" width="80" height="50" as="geometry"/>
                </mxCell>
                <mxCell id="14" value="sensor information" style="edgeStyle=none;html=1;exitX=0.5;exitY=1;exitDx=0;exitDy=0;entryX=0.5;entryY=0;entryDx=0;entryDy=0;startArrow=none;startFill=0;" edge="1" parent="1" source="6" target="11">
                    <mxGeometry relative="1" as="geometry"/>
                </mxCell>
            </root>
        </mxGraphModel>
    </diagram>
</mxfile>